<svg version="1.1" id="Layer_1" xmlns="http://www.w3.org/2000/svg" xmlns:xlink="http://www.w3.org/1999/xlink" x="0px" y="0px"
	 width="100%" viewBox="0 0 1024 1024" enable-background="new 0 0 1024 1024" xml:space="preserve">
<path fill="#000000" opacity="1.000000" stroke="none" 
	d="
M583.556152,320.505127 
	C589.728882,316.177765 595.684631,312.239136 602.787842,310.431030 
	C609.227478,308.791870 613.954468,309.879333 615.137085,313.469482 
	C616.487854,317.570343 613.815918,321.345825 607.627319,324.313873 
	C600.501282,327.731506 592.912659,329.703156 585.186951,330.847504 
	C579.806885,331.644379 576.181274,334.389893 572.736633,338.269562 
	C550.937195,362.822571 533.447021,390.364807 516.729675,418.455536 
	C505.485504,437.349365 494.241791,456.243500 483.002747,475.140381 
	C482.583374,475.845428 482.214935,476.580719 481.804901,477.334717 
	C482.984955,478.512756 484.099304,477.665558 484.998230,477.302643 
	C504.193634,469.553467 523.037476,461.144257 539.269043,447.912933 
	C546.066650,442.371796 552.117859,436.281616 554.791016,427.588989 
	C554.977966,426.981018 555.434021,426.437866 555.839294,425.923004 
	C556.025208,425.686798 556.391052,425.592285 556.731873,425.401917 
	C559.210999,425.970337 559.040466,427.735687 558.665894,429.664215 
	C557.815857,434.040558 555.609375,437.721649 552.888245,441.147736 
	C542.219971,454.580017 527.684814,462.725983 512.756958,470.249023 
	C502.047791,475.646057 491.120911,480.601318 479.732635,484.443115 
	C477.593567,485.164703 475.916931,486.296478 474.764313,488.317261 
	C459.624542,514.860413 442.332916,539.925842 422.995697,563.584595 
	C422.500397,564.190552 422.206299,564.961060 421.611053,566.025635 
	C433.970978,570.836975 445.719635,576.262268 456.909088,582.821777 
	C461.075867,585.264404 465.360504,587.574036 469.230286,590.433044 
	C472.136292,592.580078 474.098480,592.056763 476.647369,589.995117 
	C489.425262,579.659546 500.211670,567.449768 510.504150,554.732117 
	C529.078796,531.780823 544.733521,506.732971 562.189270,482.983154 
	C585.196289,451.680481 610.989197,423.053253 643.049988,400.611816 
	C649.756775,395.917236 656.795593,391.798492 664.428833,388.794678 
	C665.793884,388.257507 667.728882,386.729431 668.728943,389.052460 
	C669.516663,390.882355 667.593994,391.558350 666.316956,392.231506 
	C643.266724,404.381378 626.463318,423.146332 611.749634,444.036011 
	C604.173096,454.792755 596.985352,465.824524 589.694580,476.780365 
	C588.531372,478.528229 586.948425,480.141083 586.814819,482.508026 
	C593.623474,486.131165 600.339417,486.787231 607.650391,483.671875 
	C617.737549,479.373535 626.559143,473.197418 635.181580,466.631989 
	C648.992249,456.116089 661.139954,443.700623 674.233337,432.367035 
	C691.504639,417.417084 708.926819,402.655762 730.046692,393.151611 
	C744.238708,386.765015 758.918213,383.346832 774.616150,384.611176 
	C785.485474,385.486664 794.647095,392.119720 796.927795,401.499451 
	C797.662354,404.520416 797.500610,407.458496 795.940857,410.210052 
	C795.410828,411.145111 794.549988,411.681183 793.437256,411.331909 
	C792.537415,411.049438 792.036743,410.243317 792.227173,409.388123 
	C793.674744,402.886078 792.126221,397.418091 786.494324,393.601898 
	C779.753662,389.034271 772.238037,388.582886 764.444580,389.952209 
	C748.439270,392.764435 735.572083,401.510956 723.389954,411.567413 
	C707.710510,424.510834 693.524292,439.160034 677.472839,451.683197 
	C656.679199,467.906158 634.177002,480.940125 608.875549,488.824799 
	C607.769592,489.169464 606.694092,489.620148 605.625854,490.072021 
	C605.341675,490.192139 605.136841,490.499969 604.941345,490.679596 
	C604.666138,491.951263 605.512451,492.635712 606.211060,493.290314 
	C617.521179,503.887543 621.701904,517.755554 624.383667,532.385376 
	C627.129822,547.366394 625.699890,562.597351 627.336853,577.637451 
	C627.513733,579.263367 627.004639,580.972351 628.254272,583.129395 
	C633.683716,582.489441 639.356140,581.614807 645.062195,581.183899 
	C670.456360,579.266235 694.926147,582.031982 717.079041,595.964233 
	C744.350830,613.115906 748.924316,645.077454 735.033997,669.402954 
	C723.490967,689.617676 705.159607,700.278564 683.227722,705.273560 
	C648.258301,713.237793 615.187744,706.213135 583.389709,691.266785 
	C562.405640,681.403320 544.336670,667.146667 526.504211,652.586243 
	C522.130554,649.015076 518.031006,643.680420 513.079407,642.652039 
	C508.266327,641.652405 503.258850,646.713745 498.371826,649.162048 
	C473.129089,661.808411 447.193970,672.613098 419.285156,677.719360 
	C388.495972,683.352539 358.035736,683.703918 329.042847,669.404419 
	C314.402679,662.183777 302.505798,652.101318 296.858948,636.206421 
	C295.465179,632.283203 292.453613,631.968445 289.426849,631.570496 
	C283.319702,630.767334 277.871307,628.428528 272.887817,624.994263 
	C257.854706,614.634460 253.832199,596.519531 262.560883,577.816895 
	C271.364838,558.953064 286.404846,545.993408 303.795288,535.502075 
	C328.317841,520.708252 355.435516,512.681213 382.930115,505.708679 
	C403.223083,500.562439 423.817505,496.647797 443.915405,490.692596 
	C447.794250,489.543274 450.463654,487.522705 452.705505,484.032227 
	C471.426697,454.884583 489.381042,425.209167 510.467896,397.653137 
	C526.880859,376.204895 543.913696,355.274597 564.204895,337.264282 
	C564.809692,336.727478 565.612244,336.413513 565.982788,335.492798 
	C553.048889,336.883331 540.705750,339.855011 528.491516,343.381897 
	C502.159882,350.985138 477.556976,362.122375 456.161194,379.555573 
	C441.325165,391.643860 429.177917,405.829407 423.328186,424.485138 
	C422.001801,428.715149 421.209991,433.088989 421.806396,437.699524 
	C423.368835,449.777527 433.137787,454.617065 444.647888,452.356842 
	C457.417480,449.849213 468.141174,437.766693 469.518860,424.809662 
	C469.934357,420.901672 468.774811,417.238922 466.510071,413.971680 
	C465.680206,412.774475 464.274567,411.397430 466.130219,410.171295 
	C467.729462,409.114624 468.958527,410.461639 469.876495,411.671844 
	C473.931580,417.017914 474.098846,423.263275 473.021667,429.364929 
	C469.695587,448.205078 449.328827,461.067993 430.757263,456.377899 
	C418.499817,453.282410 409.109619,440.861969 408.648773,427.436493 
	C408.051086,410.025787 415.343140,395.787170 426.467041,383.195618 
	C444.509521,362.772644 467.886169,351.253845 493.495605,343.497650 
	C512.970032,337.599518 533.089722,335.054199 553.052979,331.670319 
	C559.108032,330.643921 565.152161,329.550568 571.192627,328.441010 
	C576.254639,327.511230 579.267090,323.334320 583.556152,320.505127 
M672.419678,589.301514 
	C659.589478,588.929199 646.868469,589.611084 634.219482,592.131165 
	C629.374573,593.096375 628.858826,595.522034 629.640564,599.535522 
	C630.923401,606.121399 633.234802,612.303711 636.256348,618.271118 
	C648.138428,641.737671 676.341492,649.889282 698.827454,636.337219 
	C700.425842,635.373901 702.080200,633.735657 704.228882,636.233704 
	C703.126404,639.060486 700.662598,640.502930 698.298645,641.916321 
	C692.763733,645.225525 686.611755,646.829590 680.274536,647.242676 
	C651.812195,649.097778 622.521118,631.015808 611.648071,604.675293 
	C609.706482,599.971680 607.793701,598.845825 602.857788,600.576904 
	C578.449341,609.136963 555.098572,620.043396 532.066956,631.697510 
	C530.644531,632.417297 528.932068,632.915527 528.230042,634.637207 
	C528.587891,636.118347 529.897888,636.704346 530.879211,637.545288 
	C541.126099,646.326538 551.647339,654.774475 562.701904,662.512695 
	C596.203674,685.964355 632.166931,701.855164 674.343140,697.613220 
	C693.470459,695.689392 710.543823,688.963867 723.650269,674.240845 
	C745.307007,649.913025 740.426758,616.547424 712.809631,600.308472 
	C700.682861,593.177917 687.500793,589.502563 672.419678,589.301514 
M498.725159,635.451416 
	C499.787781,634.596069 501.785522,634.729492 501.720184,632.172729 
	C494.066010,625.952698 485.889191,619.890564 478.420654,613.054626 
	C472.425934,607.567688 467.114594,606.910828 459.425690,610.146301 
	C446.456207,615.603882 432.643402,617.939514 418.496765,614.351807 
	C415.070526,613.482849 411.875275,612.093689 409.254395,609.648804 
	C408.273468,608.733704 407.220856,607.572998 408.136749,606.180664 
	C409.174866,604.602539 410.408295,605.636780 411.582794,606.289001 
	C425.373413,613.946777 446.938202,611.929260 458.896362,601.848633 
	C459.209045,601.585083 459.230530,600.976074 459.525085,600.137024 
	C445.799316,590.029907 430.747620,582.338684 415.107727,575.703003 
	C413.044495,574.827637 411.703857,576.119385 410.316956,577.437805 
	C405.006104,582.485901 399.790497,587.650085 394.257019,592.445251 
	C373.983917,610.013245 351.469177,623.502869 325.081360,629.772461 
	C317.519440,631.569092 309.809082,632.393860 302.023956,632.705017 
	C301.921936,636.271301 303.593842,638.580566 305.110931,640.932434 
	C312.056824,651.700806 322.109833,658.656677 333.632507,663.581177 
	C359.183105,674.500854 385.584290,673.115173 412.041656,668.174316 
	C442.609863,662.465820 470.742920,650.085144 498.725159,635.451416 
M525.324890,621.752380 
	C550.038086,609.335449 575.267944,598.134644 601.751038,590.013977 
	C606.113464,588.676331 605.871460,586.155579 605.304077,582.786316 
	C603.165955,570.090088 603.489746,557.367004 604.276672,544.539612 
	C605.057739,531.809448 606.157288,518.930420 602.969788,506.305450 
	C599.749939,493.552429 597.929993,492.374908 584.958679,492.322815 
	C581.175659,492.307617 578.758423,493.570557 576.719360,496.670044 
	C571.414124,504.734100 565.837524,512.619019 560.453613,520.632141 
	C540.297791,550.630493 516.527527,577.100098 486.069550,597.071533 
	C484.991699,597.778320 483.693146,598.409973 483.791046,600.035339 
	C484.449493,601.532532 485.822815,602.213013 487.004700,603.113464 
	C494.684998,608.964478 502.725800,614.416626 509.891418,620.843567 
	C514.973267,625.401550 519.341309,626.247559 525.324890,621.752380 
M344.100250,522.687622 
	C327.155640,528.923645 310.866241,536.498230 296.360291,547.373779 
	C282.587921,557.699463 270.708679,569.663635 265.171936,586.613037 
	C258.547272,606.892822 271.910919,625.985657 293.516357,627.049438 
	C294.402740,625.983765 293.764679,624.808655 293.704132,623.695557 
	C293.207733,614.570190 294.587341,605.786865 298.515015,597.488281 
	C308.158691,577.112549 325.053589,566.020081 346.249634,560.741760 
	C362.954620,556.581787 379.855072,556.831421 396.713196,559.817627 
	C399.921143,560.385864 401.559509,559.245911 403.369171,556.915833 
	C415.948883,540.718689 427.123047,523.559692 438.179016,506.321320 
	C440.287781,503.033417 443.020111,500.048157 444.262512,495.425873 
	C410.879761,504.894440 377.106232,510.825958 344.100250,522.687622 
M302.973755,601.460327 
	C300.016693,607.761658 298.927399,614.404053 299.215088,621.330994 
	C299.469574,627.459290 300.262115,628.318970 306.344482,627.566895 
	C316.649963,626.292542 326.473419,623.446472 335.684143,618.491699 
	C357.264862,606.882446 374.886902,590.584900 390.846710,572.287292 
	C391.483795,571.556946 392.265198,570.828674 391.909363,569.601318 
	C391.084259,568.754822 389.979675,568.537170 388.807922,568.321716 
	C376.632385,566.082703 364.371735,565.245117 352.154938,567.457153 
	C330.995697,571.288269 312.741028,579.643555 302.973755,601.460327 
M604.205139,320.746429 
	C606.686401,319.336761 609.673462,318.422363 610.427673,314.309906 
	C600.194275,313.866150 593.569580,319.805145 586.683838,325.219421 
	C592.573547,324.766296 598.216858,323.559143 604.205139,320.746429 
z"/>
</svg>